ply
format ascii 1.0
element vertex 404
property float x
property float y
property float z
end_header
-0.017897680167950552 -0.20365823539231853 -1.549152354026317
-0.017627362220912792 -0.20850901798933183 -1.5495016983476282
-0.01735704427387503 -0.21335980058634513 -1.5498510426689394
-0.01708672632683727 -0.2182105831833584 -1.5502003869902505
-0.01681640837979951 -0.2230613657803717 -1.5505497313115615
-0.01654609043276175 -0.227912148377385 -1.5508990756328727
-0.016275772485723986 -0.2327629309743983 -1.5512484199541838
-0.016005454538686226 -0.2376137135714116 -1.551597764275495
-0.015735136591648467 -0.2424644961684249 -1.5519471085968062
-0.015464818644610705 -0.24731527876543818 -1.5522964529181174
-0.015194500697572944 -0.25216606136245145 -1.5526457972394285
-0.014924182750535184 -0.2570168439594648 -1.5529951415607397
-0.014653864803497422 -0.26186762655647805 -1.5533444858820507
-0.01438354685645966 -0.2667184091534913 -1.5536938302033618
-0.0141132289094219 -0.27156919175050465 -1.554043174524673
-0.01384291096238414 -0.2764199743475179 -1.5543925188459842
-0.013572593015346378 -0.28127075694453124 -1.5547418631672953
-0.013302275068308618 -0.2861215395415445 -1.5550912074886065
-0.013031957121270858 -0.29097232213855784 -1.5554405518099177
-0.012761639174233095 -0.2958231047355711 -1.5557898961312289
-0.012491321227195335 -0.3006738873325844 -1.5561392404525398
-0.012221003280157575 -0.3055246699295977 -1.556488584773851
-0.011950685333119814 -0.310375452526611 -1.5568379290951622
-0.011680367386082052 -0.3152262351236243 -1.5571872734164733
-0.011410049439044292 -0.32007701772063757 -1.5575366177377845
-0.011139731492006531 -0.3249278003176509 -1.5578859620590957
-0.01086941354496877 -0.32977858291466416 -1.5582353063804069
-0.01059909559793101 -0.33462936551167743 -1.5585846507017178
-0.01032877765089325 -0.33948014810869076 -1.558933995023029
-0.010058459703855488 -0.34433093070570403 -1.5592833393443402
-0.009788141756817727 -0.3491817133027173 -1.5596326836656513
-0.009517823809779967 -0.3540324958997306 -1.5599820279869625
-0.009247505862742205 -0.35888327849674395 -1.5603313723082737
-0.008977187915704444 -0.3637340610937572 -1.5606807166295849
-0.008706869968666684 -0.3685848436907705 -1.561030060950896
-0.008436552021628923 -0.3734356262877838 -1.561379405272207
-0.008166234074591163 -0.3782864088847971 -1.5617287495935182
-0.007895916127553401 -0.38313719148181036 -1.5620780939148293
-0.00762559818051564 -0.3879879740788237 -1.5624274382361405
-0.00735528023347788 -0.392838756675837 -1.5627767825574517
-0.007084962286440118 -0.3976895392728503 -1.5631261268787628
-0.0068146443394023586 -0.40254032186986355 -1.563475471200074
-0.006544326392364597 -0.4073911044668769 -1.5638248155213852
-0.0062740084453268355 -0.41224188706389014 -1.5641741598426961
-0.006003690498289076 -0.4170926696609034 -1.5645235041640073
-0.005733372551251314 -0.42194345225791674 -1.5648728484853185
-0.005463054604213554 -0.42679423485493007 -1.5652221928066297
-0.005192736657175793 -0.43164501745194334 -1.5655715371279408
-0.004922418710138033 -0.4364958000489566 -1.565920881449252
-0.0046521007631002715 -0.44134658264596993 -1.5662702257705632
-0.00438178281606251 -0.4461973652429832 -1.5666195700918744
-0.00411146486902475 -0.45104814783999647 -1.5669689144131853
-0.0038411469219869886 -0.4558989304370098 -1.5673182587344965
-0.003570828974949229 -0.46074971303402307 -1.5676676030558077
-0.0033005110279114673 -0.4656004956310364 -1.5680169473771188
-0.0030301930808737058 -0.47045127822804966 -1.56836629169843
-0.002759875133835946 -0.475302060825063 -1.5687156360197412
-0.0024895571867981844 -0.48015284342207626 -1.5690649803410524
-0.0022192392397604246 -0.48500362601908953 -1.5694143246623633
-0.0019489212927226614 -0.48985440861610285 -1.5697636689836745
-0.0016786033456849016 -0.4947051912131161 -1.5701130133049856
-0.0014082853986471418 -0.49955597381012945 -1.5704623576262968
-0.001137967451609382 -0.5044067564071427 -1.570811701947608
-0.0008676495045716187 -0.509257539004156 -1.5711610462689192
-0.0005973315575338589 -0.5141083216011693 -1.5715103905902303
-0.0003270136104960991 -0.5189591041981826 -1.5718597349115415
-5.669566345833585e-05 -0.5238098867951959 -1.5722090792328525
0.00021362228357942395 -0.5286606693922091 -1.5725584235541636
0.00048394023061718375 -0.5335114519892226 -1.5729077678754748
0.0007542581776549435 -0.5383622345862358 -1.573257112196786
0.0010245761246927068 -0.5432130171832491 -1.5736064565180972
0.0012948940717304666 -0.5480637997802624 -1.5739558008394083
0.0015652120187682264 -0.5529145823772756 -1.5743051451607195
0.0018355299658059897 -0.557765364974289 -1.5746544894820307
0.0021058479128437495 -0.5626161475713023 -1.5750038338033416
0.0023761658598815093 -0.5674669301683155 -1.5753531781246528
0.0026464838069192725 -0.5723177127653288 -1.575702522445964
0.0029168017539570323 -0.5771684953623422 -1.5760518667672752
0.003187119700994792 -0.5820192779593554 -1.5764012110885863
0.003457437648032552 -0.5868700605563687 -1.5767505554098975
0.003727755595070315 -0.591720843153382 -1.5770998997312087
0.003998073542108075 -0.5965716257503952 -1.5774492440525196
0.004268391489145835 -0.6014224083474087 -1.5777985883738308
0.004538709436183598 -0.6062731909444219 -1.578147932695142
0.004809027383221358 -0.6111239735414351 -1.5784972770164531
0.005079345330259118 -0.6159747561384485 -1.5788466213377643
0.005349663277296881 -0.6208255387354618 -1.5791959656590755
0.005619981224334641 -0.6256763213324751 -1.5795453099803867
0.0058902991713724005 -0.6305271039294884 -1.5798946543016978
0.00616061711841016 -0.6353778865265016 -1.5802439986230088
0.006430935065447924 -0.640228669123515 -1.58059334294432
0.006701253012485683 -0.6450794517205283 -1.5809426872656311
0.006971570959523443 -0.6499302343175415 -1.5812920315869423
0.0072418889065612065 -0.6547810169145548 -1.5816413759082535
0.007512206853598966 -0.6596317995115681 -1.5819907202295647
0.007782524800636726 -0.6644825821085814 -1.5823400645508758
0.008052842747674486 -0.6693333647055947 -1.582689408872187
0.008323160694712249 -0.674184147302608 -1.583038753193498
0.008593478641750009 -0.6790349298996212 -1.5833880975148091
0.008863796588787769 -0.6838857124966347 -1.5837374418361203
0.009134114535825532 -0.6887364950936479 -1.5840867861574315
-1.010421024990343 -0.1551935653278879 -1.5196698713276444
-1.005642295095712 -0.15545020196923068 -1.5199134174830058
-1.000863565201081 -0.15570683861057347 -1.5201569636383674
-0.9960848353064501 -0.15596347525191626 -1.5204005097937288
-0.9913061054118192 -0.15622011189325904 -1.5206440559490904
-0.9865273755171882 -0.15647674853460183 -1.5208876021044517
-0.9817486456225573 -0.15673338517594462 -1.521131148259813
-0.9769699157279262 -0.1569900218172874 -1.5213746944151747
-0.9721911858332953 -0.1572466584586302 -1.521618240570536
-0.9674124559386644 -0.157503295099973 -1.5218617867258977
-0.9626337260440334 -0.15775993174131575 -1.522105332881259
-0.9578549961494025 -0.15801656838265854 -1.5223488790366206
-0.9530762662547716 -0.15827320502400133 -1.522592425191982
-0.9482975363601406 -0.15852984166534412 -1.5228359713473434
-0.9435188064655097 -0.1587864783066869 -1.523079517502705
-0.9387400765708787 -0.1590431149480297 -1.5233230636580664
-0.9339613466762478 -0.15929975158937248 -1.523566609813428
-0.9291826167816168 -0.15955638823071527 -1.5238101559687893
-0.9244038868869858 -0.15981302487205806 -1.5240537021241507
-0.9196251569923549 -0.16006966151340085 -1.5242972482795123
-0.914846427097724 -0.16032629815474364 -1.5245407944348737
-0.910067697203093 -0.16058293479608643 -1.5247843405902353
-0.9052889673084621 -0.16083957143742922 -1.5250278867455966
-0.9005102374138312 -0.161096208078772 -1.525271432900958
-0.8957315075192002 -0.1613528447201148 -1.5255149790563196
-0.8909527776245693 -0.16160948136145759 -1.525758525211681
-0.8861740477299382 -0.16186611800280037 -1.5260020713670426
-0.8813953178353073 -0.16212275464414316 -1.526245617522404
-0.8766165879406764 -0.16237939128548595 -1.5264891636777653
-0.8718378580460454 -0.16263602792682874 -1.526732709833127
-0.8670591281514145 -0.1628926645681715 -1.5269762559884883
-0.8622803982567835 -0.1631493012095143 -1.52721980214385
-0.8575016683621526 -0.16340593785085708 -1.5274633482992113
-0.8527229384675217 -0.16366257449219987 -1.5277068944545729
-0.8479442085728908 -0.16391921113354266 -1.5279504406099342
-0.8431654786782597 -0.16417584777488545 -1.5281939867652956
-0.8383867487836288 -0.16443248441622824 -1.5284375329206572
-0.8336080188889978 -0.16468912105757103 -1.5286810790760186
-0.8288292889943669 -0.16494575769891381 -1.5289246252313802
-0.824050559099736 -0.1652023943402566 -1.5291681713867415
-0.819271829205105 -0.1654590309815994 -1.529411717542103
-0.8144930993104741 -0.16571566762294218 -1.5296552636974645
-0.8097143694158431 -0.16597230426428497 -1.529898809852826
-0.8049356395212122 -0.16622894090562776 -1.5301423560081875
-0.8001569096265813 -0.16648557754697055 -1.5303859021635489
-0.7953781797319504 -0.16674221418831334 -1.5306294483189102
-0.7905994498373193 -0.16699885082965613 -1.5308729944742718
-0.7858207199426884 -0.16725548747099891 -1.5311165406296332
-0.7810419900480574 -0.1675121241123417 -1.5313600867849948
-0.7762632601534265 -0.16776876075368446 -1.5316036329403562
-0.7714845302587956 -0.16802539739502725 -1.5318471790957178
-0.7667058003641646 -0.16828203403637004 -1.5320907252510791
-0.7619270704695337 -0.16853867067771283 -1.5323342714064405
-0.7571483405749027 -0.16879530731905562 -1.5325778175618021
-0.7523696106802717 -0.1690519439603984 -1.5328213637171635
-0.7475908807856408 -0.1693085806017412 -1.533064909872525
-0.7428121508910099 -0.169565217243084 -1.5333084560278865
-0.7380334209963789 -0.16982185388442678 -1.5335520021832478
-0.7332546911017479 -0.17007849052576957 -1.5337955483386094
-0.728475961207117 -0.17033512716711235 -1.5340390944939708
-0.7236972313124861 -0.17059176380845514 -1.5342826406493324
-0.7189185014178552 -0.17084840044979793 -1.5345261868046938
-0.7141397715232242 -0.17110503709114072 -1.5347697329600551
-0.7093610416285933 -0.1713616737324835 -1.5350132791154167
-0.7045823117339622 -0.1716183103738263 -1.5352568252707781
-0.6998035818393313 -0.1718749470151691 -1.5355003714261397
-0.6950248519447004 -0.17213158365651188 -1.535743917581501
-0.6902461220500695 -0.17238822029785467 -1.5359874637368625
-0.6854673921554385 -0.17264485693919746 -1.536231009892224
-0.6806886622608075 -0.17290149358054024 -1.5364745560475854
-0.6759099323661766 -0.17315813022188303 -1.536718102202947
-0.6711312024715457 -0.1734147668632258 -1.5369616483583084
-0.6663524725769148 -0.17367140350456858 -1.53720519451367
-0.6615737426822837 -0.17392804014591137 -1.5374487406690314
-0.6567950127876528 -0.17418467678725416 -1.5376922868243927
-0.6520162828930218 -0.17444131342859695 -1.5379358329797543
-0.6472375529983909 -0.17469795006993974 -1.5381793791351157
-0.64245882310376 -0.17495458671128253 -1.5384229252904773
-0.6376800932091291 -0.17521122335262532 -1.5386664714458387
-0.6329013633144981 -0.1754678599939681 -1.5389100176012
-0.6281226334198671 -0.1757244966353109 -1.5391535637565616
-0.6233439035252362 -0.17598113327665368 -1.539397109911923
-0.6185651736306053 -0.17623776991799647 -1.5396406560672846
-0.6137864437359744 -0.17649440655933926 -1.539884202222646
-0.6090077138413433 -0.17675104320068205 -1.5401277483780074
-0.6042289839467124 -0.17700767984202484 -1.540371294533369
-0.5994502540520814 -0.17726431648336763 -1.5406148406887303
-0.5946715241574505 -0.17752095312471042 -1.540858386844092
-0.5898927942628196 -0.17777758976605318 -1.5411019329994533
-0.5851140643681887 -0.17803422640739597 -1.5413454791548147
-0.5803353344735577 -0.17829086304873876 -1.5415890253101763
-0.5755566045789267 -0.17854749969008155 -1.5418325714655376
-0.5707778746842957 -0.17880413633142433 -1.5420761176208992
-0.5659991447896648 -0.17906077297276712 -1.5423196637762606
-0.5612204148950339 -0.1793174096141099 -1.5425632099316222
-0.5564416850004029 -0.1795740462554527 -1.5428067560869836
-0.551662955105772 -0.1798306828967955 -1.543050302242345
-0.546884225211141 -0.18008731953813828 -1.5432938483977066
-0.5421054953165101 -0.18034395617948107 -1.543537394553068
-0.5373267654218792 -0.18060059282082386 -1.5437809407084295
-0.5325480355272483 -0.18085722946216665 -1.544024486863791
-0.5325480355272482 -0.18085722946216665 -1.544024486863791
-0.5274015319736551 -0.18108523952146816 -1.5440757655354163
-0.5222550284200622 -0.1813132495807697 -1.5441270442070414
-0.5171085248664692 -0.1815412596400712 -1.5441783228786667
-0.5119620213128763 -0.1817692696993727 -1.5442296015502919
-0.5068155177592832 -0.18199727975867425 -1.5442808802219172
-0.5016690142056903 -0.18222528981797576 -1.5443321588935424
-0.49652251065209735 -0.1824532998772773 -1.5443834375651677
-0.4913760070985044 -0.1826813099365788 -1.544434716236793
-0.4862295035449114 -0.1829093199958803 -1.5444859949084182
-0.4810829999913184 -0.18313733005518185 -1.5445372735800436
-0.4759364964377254 -0.18336534011448336 -1.5445885522516687
-0.4707899928841325 -0.18359335017378486 -1.544639830923294
-0.46564348933053945 -0.1838213602330864 -1.5446911095949194
-0.4604969857769465 -0.1840493702923879 -1.5447423882665445
-0.4553504822233535 -0.18427738035168942 -1.5447936669381699
-0.45020397866976053 -0.18450539041099095 -1.544844945609795
-0.44505747511616756 -0.18473340047029246 -1.5448962242814204
-0.4399109715625746 -0.18496141052959397 -1.5449475029530455
-0.4347644680089816 -0.1851894205888955 -1.5449987816246709
-0.42961796445538863 -0.18541743064819702 -1.5450500602962962
-0.42447146090179566 -0.18564544070749855 -1.5451013389679213
-0.4193249573482027 -0.18587345076680006 -1.5451526176395467
-0.4141784537946097 -0.18610146082610157 -1.5452038963111718
-0.40903195024101674 -0.1863294708854031 -1.5452551749827972
-0.40388544668742377 -0.18655748094470462 -1.5453064536544225
-0.3987389431338308 -0.18678549100400613 -1.5453577323260477
-0.3935924395802378 -0.18701350106330766 -1.545409010997673
-0.3884459360266448 -0.18724151112260917 -1.5454602896692982
-0.38329943247305187 -0.18746952118191068 -1.5455115683409235
-0.37815292891945884 -0.18769753124121222 -1.5455628470125486
-0.3730064253658659 -0.18792554130051373 -1.545614125684174
-0.3678599218122729 -0.18815355135981526 -1.5456654043557994
-0.36271341825868 -0.18838156141911677 -1.5457166830274245
-0.35756691470508695 -0.18860957147841828 -1.5457679616990498
-0.35242041115149403 -0.18883758153771982 -1.545819240370675
-0.347273907597901 -0.18906559159702133 -1.5458705190423003
-0.3421274040443081 -0.18929360165632284 -1.5459217977139255
-0.33698090049071505 -0.18952161171562437 -1.5459730763855508
-0.3318343969371221 -0.18974962177492588 -1.5460243550571762
-0.3266878933835291 -0.1899776318342274 -1.5460756337288013
-0.32154138982993613 -0.19020564189352893 -1.5461269124004267
-0.31639488627634316 -0.19043365195283044 -1.5461781910720518
-0.3112483827227502 -0.19066166201213197 -1.5462294697436771
-0.3061018791691572 -0.19088967207143348 -1.5462807484153025
-0.30095537561556424 -0.191117682130735 -1.5463320270869276
-0.29580887206197126 -0.19134569219003653 -1.546383305758553
-0.2906623685083783 -0.19157370224933803 -1.5464345844301781
-0.2855158649547853 -0.19180171230863954 -1.5464858631018035
-0.28036936140119234 -0.19202972236794108 -1.5465371417734286
-0.27522285784759937 -0.1922577324272426 -1.546588420445054
-0.2700763542940064 -0.1924857424865441 -1.5466396991166793
-0.2649298507404134 -0.19271375254584563 -1.5466909777883044
-0.25978334718682045 -0.19294176260514714 -1.5467422564599298
-0.2546368436332274 -0.19316977266444865 -1.546793535131555
-0.24949034007963444 -0.1933977827237502 -1.5468448138031803
-0.24434383652604147 -0.1936257927830517 -1.5468960924748054
-0.2391973329724485 -0.19385380284235323 -1.5469473711464308
-0.23405082941885552 -0.19408181290165474 -1.5469986498180561
-0.22890432586526255 -0.19430982296095625 -1.5470499284896813
-0.22375782231166957 -0.1945378330202578 -1.5471012071613066
-0.2186113187580766 -0.1947658430795593 -1.5471524858329317
-0.21346481520448363 -0.1949938531388608 -1.547203764504557
-0.20831831165089065 -0.19522186319816234 -1.5472550431761825
-0.20317180809729768 -0.19544987325746385 -1.5473063218478076
-0.1980253045437047 -0.19567788331676536 -1.547357600519433
-0.19287880099011173 -0.1959058933760669 -1.547408879191058
-0.18773229743651876 -0.1961339034353684 -1.5474601578626834
-0.18258579388292578 -0.19636191349466992 -1.5475114365343086
-0.1774392903293328 -0.19658992355397145 -1.547562715205934
-0.17229278677573984 -0.19681793361327296 -1.5476139938775593
-0.16714628322214686 -0.1970459436725745 -1.5476652725491844
-0.1619997796685539 -0.197273953731876 -1.5477165512208098
-0.15685327611496092 -0.19750196379117751 -1.5477678298924349
-0.15170677256136794 -0.19772997385047905 -1.5478191085640602
-0.1465602690077749 -0.19795798390978056 -1.5478703872356856
-0.14141376545418194 -0.19818599396908207 -1.5479216659073107
-0.13626726190058897 -0.1984140040283836 -1.547972944578936
-0.131120758346996 -0.19864201408768511 -1.5480242232505612
-0.12597425479340302 -0.19887002414698662 -1.5480755019221866
-0.12082775123981004 -0.19909803420628816 -1.5481267805938117
-0.11568124768621707 -0.19932604426558967 -1.548178059265437
-0.1105347441326241 -0.1995540543248912 -1.5482293379370624
-0.10538824057903112 -0.19978206438419271 -1.5482806166086875
-0.10024173702543815 -0.20001007444349422 -1.548331895280313
-0.09509523347184518 -0.20023808450279576 -1.548383173951938
-0.0899487299182522 -0.20046609456209727 -1.5484344526235634
-0.08480222636465923 -0.20069410462139878 -1.5484857312951885
-0.07965572281106625 -0.20092211468070031 -1.5485370099668139
-0.07450921925747328 -0.20115012474000182 -1.5485882886384392
-0.0693627157038803 -0.20137813479930333 -1.5486395673100644
-0.06421621215028733 -0.20160614485860487 -1.5486908459816897
-0.05906970859669436 -0.20183415491790638 -1.5487421246533148
-0.053923205043101385 -0.20206216497720791 -1.5487934033249402
-0.04877670148950841 -0.20229017503650942 -1.5488446819965656
-0.04363019793591544 -0.20251818509581093 -1.5488959606681907
-0.038483694382322464 -0.20274619515511247 -1.548947239339816
-0.033337190828729435 -0.20297420521441398 -1.5489985180114412
-0.028190687275136517 -0.2032022152737155 -1.5490497966830665
-0.023044183721543487 -0.20343022533301702 -1.5491010753546917
-0.01789768016795057 -0.20365823539231853 -1.549152354026317
-0.9931617600747665 -0.15986465804980945 -1.061697085401911
-0.9933343527239223 -0.15981794712259023 -1.0662768132611684
-0.993506945373078 -0.15977123619537104 -1.0708565411204256
-0.9936795380222339 -0.1597245252681518 -1.075436268979683
-0.9938521306713896 -0.1596778143409326 -1.0800159968389402
-0.9940247233205454 -0.15963110341371337 -1.0845957246981976
-0.9941973159697011 -0.15958439248649417 -1.089175452557455
-0.9943699086188569 -0.15953768155927495 -1.0937551804167123
-0.9945425012680127 -0.15949097063205572 -1.0983349082759697
-0.9947150939171684 -0.15944425970483653 -1.102914636135227
-0.9948876865663242 -0.1593975487776173 -1.1074943639944843
-0.9950602792154799 -0.15935083785039808 -1.1120740918537417
-0.9952328718646357 -0.15930412692317886 -1.116653819712999
-0.9954054645137914 -0.15925741599595966 -1.1212335475722564
-0.9955780571629472 -0.15921070506874044 -1.1258132754315135
-0.995750649812103 -0.15916399414152121 -1.130393003290771
-0.9959232424612587 -0.159117283214302 -1.1349727311500284
-0.9960958351104146 -0.1590705722870828 -1.1395524590092856
-0.9962684277595703 -0.15902386135986357 -1.144132186868543
-0.9964410204087261 -0.15897715043264435 -1.1487119147278004
-0.9966136130578818 -0.15893043950542515 -1.1532916425870576
-0.9967862057070376 -0.15888372857820593 -1.157871370446315
-0.9969587983561934 -0.1588370176509867 -1.1624510983055723
-0.9971313910053491 -0.15879030672376748 -1.1670308261648297
-0.9973039836545049 -0.1587435957965483 -1.171610554024087
-0.9974765763036606 -0.15869688486932906 -1.1761902818833443
-0.9976491689528164 -0.15865017394210984 -1.1807700097426017
-0.9978217616019721 -0.15860346301489064 -1.185349737601859
-0.9979943542511279 -0.15855675208767142 -1.1899294654611163
-0.9981669469002837 -0.1585100411604522 -1.1945091933203738
-0.9983395395494394 -0.15846333023323297 -1.199088921179631
-0.9985121321985952 -0.15841661930601378 -1.2036686490388884
-0.998684724847751 -0.15836990837879455 -1.2082483768981458
-0.9988573174969068 -0.15832319745157533 -1.212828104757403
-0.9990299101460625 -0.15827648652435614 -1.2174078326166604
-0.9992025027952183 -0.1582297755971369 -1.2219875604759176
-0.9993750954443741 -0.1581830646699177 -1.226567288335175
-0.9995476880935298 -0.15813635374269847 -1.2311470161944325
-0.9997202807426856 -0.15808964281547927 -1.2357267440536897
-0.9998928733918413 -0.15804293188826005 -1.240306471912947
-1.000065466040997 -0.15799622096104082 -1.2448861997722043
-1.000238058690153 -0.1579495100338216 -1.2494659276314617
-1.0004106513393085 -0.1579027991066024 -1.2540456554907191
-1.0005832439884643 -0.15785608817938318 -1.2586253833499763
-1.0007558366376201 -0.15780937725216396 -1.2632051112092337
-1.000928429286776 -0.15776266632494476 -1.267784839068491
-1.0011010219359318 -0.15771595539772554 -1.2723645669277484
-1.0012736145850873 -0.15766924447050631 -1.2769442947870058
-1.0014462072342432 -0.1576225335432871 -1.281524022646263
-1.001618799883399 -0.1575758226160679 -1.2861037505055204
-1.0017913925325548 -0.15752911168884867 -1.2906834783647776
-1.0019639851817106 -0.15748240076162945 -1.295263206224035
-1.0021365778308662 -0.15743568983441025 -1.2998429340832924
-1.002309170480022 -0.15738897890719103 -1.3044226619425496
-1.0024817631291778 -0.1573422679799718 -1.309002389801807
-1.0026543557783336 -0.15729555705275258 -1.3135821176610643
-1.0028269484274892 -0.1572488461255334 -1.3181618455203217
-1.002999541076645 -0.15720213519831416 -1.322741573379579
-1.0031721337258008 -0.15715542427109494 -1.3273213012388363
-1.0033447263749566 -0.15710871334387574 -1.3319010290980937
-1.0035173190241125 -0.15706200241665652 -1.336480756957351
-1.003689911673268 -0.1570152914894373 -1.3410604848166083
-1.0038625043224239 -0.15696858056221807 -1.3456402126758658
-1.0040350969715797 -0.15692186963499888 -1.3502199405351232
-1.0042076896207355 -0.15687515870777965 -1.3547996683943804
-1.0043802822698913 -0.15682844778056043 -1.3593793962536376
-1.0045528749190469 -0.1567817368533412 -1.363959124112895
-1.0047254675682027 -0.156735025926122 -1.3685388519721524
-1.0048980602173585 -0.1566883149989028 -1.3731185798314098
-1.0050706528665143 -0.15664160407168357 -1.377698307690667
-1.00524324551567 -0.15659489314446437 -1.3822780355499245
-1.0054158381648257 -0.15654818221724515 -1.3868577634091817
-1.0055884308139815 -0.15650147129002592 -1.391437491268439
-1.0057610234631373 -0.1564547603628067 -1.3960172191276965
-1.0059336161122931 -0.1564080494355875 -1.4005969469869537
-1.0061062087614487 -0.15636133850836828 -1.4051766748462111
-1.0062788014106046 -0.15631462758114906 -1.4097564027054683
-1.0064513940597604 -0.15626791665392986 -1.4143361305647257
-1.0066239867089162 -0.15622120572671064 -1.4189158584239832
-1.006796579358072 -0.15617449479949141 -1.4234955862832404
-1.0069691720072276 -0.1561277838722722 -1.4280753141424978
-1.0071417646563834 -0.156081072945053 -1.432655042001755
-1.0073143573055392 -0.15603436201783377 -1.4372347698610124
-1.007486949954695 -0.15598765109061455 -1.4418144977202698
-1.0076595426038506 -0.15594094016339535 -1.446394225579527
-1.0078321352530064 -0.15589422923617613 -1.4509739534387844
-1.0080047279021622 -0.1558475183089569 -1.4555536812980416
-1.008177320551318 -0.15580080738173768 -1.460133409157299
-1.0083499132004738 -0.1557540964545185 -1.4647131370165565
-1.0085225058496294 -0.15570738552729926 -1.4692928648758137
-1.0086950984987852 -0.15566067460008004 -1.473872592735071
-1.008867691147941 -0.15561396367286082 -1.4784523205943283
-1.0090402837970969 -0.15556725274564162 -1.4830320484535857
-1.0092128764462527 -0.1555205418184224 -1.4876117763128431
-1.0093854690954083 -0.15547383089120317 -1.4921915041721003
-1.009558061744564 -0.15542711996398398 -1.4967712320313578
-1.00973065439372 -0.15538040903676476 -1.501350959890615
-1.0099032470428757 -0.15533369810954553 -1.5059306877498724
-1.0100758396920313 -0.1552869871823263 -1.5105104156091298
-1.010248432341187 -0.1552402762551071 -1.515090143468387
-1.010421024990343 -0.1551935653278879 -1.5196698713276444
